<?xml version="1.0" standalone="no"?>
<!DOCTYPE svg PUBLIC "-//W3C//DTD SVG 20010904//EN"
 "http://www.w3.org/TR/2001/REC-SVG-20010904/DTD/svg10.dtd">
<svg version="1.0" xmlns="http://www.w3.org/2000/svg"
 width="1600.000000pt" height="1600.000000pt" viewBox="0 0 1600.000000 1600.000000"
 preserveAspectRatio="xMidYMid meet">

<g transform="translate(0.000000,1600.000000) scale(0.100000,-0.100000)"
fill="#2f73fe" stroke="none">
<path d="M7690 15674 c-1086 -64 -2085 -473 -2898 -1187 -140 -123 -391 -382
-513 -528 -388 -469 -690 -1017 -874 -1589 -267 -832 -298 -1719 -90 -2578
229 -941 752 -1800 1495 -2455 640 -563 1465 -961 2290 -1101 85 -15 166 -30
180 -34 l25 -7 0 -810 0 -810 -1112 -3 -1113 -2 0 -635 0 -635 1115 0 1115 0
0 -1110 0 -1110 630 0 630 0 0 1110 0 1110 1110 0 1110 0 0 635 0 635 -1110 0
-1110 0 0 815 0 815 23 4 c12 3 56 10 97 17 498 76 1061 267 1501 510 632 348
1132 781 1559 1351 504 671 811 1446 916 2308 35 292 30 827 -12 1148 -176
1356 -945 2586 -2094 3347 -647 429 -1363 686 -2145 770 -136 15 -593 27 -725
19z m630 -1280 c1524 -159 2779 -1324 3054 -2834 50 -273 69 -646 47 -911 -70
-847 -420 -1609 -1011 -2199 -518 -519 -1162 -851 -1885 -975 -229 -38 -379
-48 -673 -42 -276 6 -377 16 -617 63 -703 139 -1390 526 -1870 1053 -509 558
-809 1215 -901 1971 -25 200 -25 600 0 800 51 425 153 772 336 1145 274 560
680 1022 1201 1368 536 356 1110 541 1794 581 105 6 375 -4 525 -20z"/>
</g>
</svg>
