<?xml version="1.0" standalone="no"?>
<!DOCTYPE svg PUBLIC "-//W3C//DTD SVG 20010904//EN"
 "http://www.w3.org/TR/2001/REC-SVG-20010904/DTD/svg10.dtd">
<svg version="1.0" xmlns="http://www.w3.org/2000/svg"
 width="6250.000000pt" height="6250.000000pt" viewBox="0 0 6250.000000 6250.000000"
 preserveAspectRatio="xMidYMid meet">

<g transform="translate(0.000000,6250.000000) scale(0.100000,-0.100000)"
fill="#2f73fe" stroke="none">
<path d="M31770 53820 l0 -4330 5997 0 5998 0 -3791 -3791 -3791 -3791 -264
164 c-789 492 -1562 905 -2389 1278 -3229 1456 -6790 2037 -10380 1694 -2986
-285 -5891 -1239 -8453 -2776 -3656 -2192 -6560 -5488 -8252 -9363 -941 -2155
-1501 -4478 -1650 -6845 -53 -855 -53 -1775 0 -2630 190 -3011 1043 -5940
2493 -8550 1785 -3216 4430 -5919 7603 -7773 702 -410 1496 -809 2244 -1129
2092 -894 4348 -1432 6640 -1583 843 -55 1780 -59 2595 -10 3467 210 6717
1250 9625 3078 890 560 1779 1224 2580 1927 700 614 1446 1366 2031 2045 968
1125 1767 2279 2477 3575 156 286 476 924 616 1230 1041 2271 1650 4702 1806
7215 50 811 50 1772 0 2580 -217 3467 -1302 6796 -3158 9686 l-35 56 3384
3384 3384 3384 0 -5188 0 -5187 4335 0 4335 0 0 12976 c0 11232 -2 12977 -14
12990 -13 12 -1758 14 -12990 14 l-12976 0 0 -4330z m-5815 -16169 c476 -35
911 -85 1315 -152 2033 -336 3956 -1160 5615 -2403 407 -305 396 -294 1338
-1235 945 -942 959 -957 1266 -1364 1429 -1897 2311 -4171 2530 -6522 91 -965
75 -1945 -45 -2870 -250 -1930 -904 -3720 -1956 -5354 -715 -1111 -1650 -2158
-2678 -3001 -2020 -1657 -4470 -2658 -7055 -2884 -408 -36 -548 -41 -1135 -41
-607 0 -739 5 -1185 46 -1941 177 -3814 792 -5485 1802 -2539 1535 -4488 3909
-5494 6690 -384 1061 -625 2169 -720 3302 -33 387 -40 584 -40 1080 0 496 7
693 40 1080 182 2179 907 4254 2119 6070 620 930 1341 1760 2164 2494 2078
1853 4664 2980 7416 3230 190 17 301 25 640 45 130 7 1209 -3 1350 -13z"/>
</g>
</svg>
